Coordinates
version=1
nRows=14
nColumns=36
inDegrees=yes

Units are S.I. units (second, meters, Newtons, ...)
If the header above contains a line with 'inDegrees', this indicates whether rotational values are in degrees (yes) or radians (no).

endheader
time	pelvis_tilt	pelvis_list	pelvis_rotation	pelvis_tx	pelvis_ty	pelvis_tz	hip_flexion_r	hip_adduction_r	hip_rotation_r	knee_angle_r	knee_angle_r_beta	ankle_angle_r	subtalar_angle_r	mtp_angle_r	hip_flexion_l	hip_adduction_l	hip_rotation_l	knee_angle_l	knee_angle_l_beta	ankle_angle_l	subtalar_angle_l	mtp_angle_l	lumbar_extension	lumbar_bending	lumbar_rotation	arm_flex_r	arm_add_r	arm_rot_r	elbow_flex_r	pro_sup_r	arm_flex_l	arm_add_l	arm_rot_l	elbow_flex_l	pro_sup_l
      0.00000000	     -8.82292216	     -1.39281375	      1.00032375	      0.32886183	      0.79099881	     -0.13182041	     72.32186080	    -13.92090644	     -2.76560496	     48.24367850	      0.84201103	     -7.38675993	     -9.35217343	     -6.26978766	     50.63611248	      9.46229779	      5.94742540	     60.26352017	      1.05179685	     24.31484477	     -7.98809364	     -6.26978766	    -33.29650037	      3.40375579	    -11.98253857	     54.52351926	     -8.37816777	     55.38741763	    122.49117878	     89.03210745	     69.40605816	    -11.32021967	     71.46111855	    116.33278373	     90.93645988
      0.01666670	     -7.12478515	      1.11797226	     -0.65502715	      0.33922225	      0.80077240	     -0.12490768	     70.57148403	    -13.52085573	     -1.48574283	     44.38232224	      0.77461765	      0.61962986	      2.06513071	     -6.39239982	     48.45717014	     10.94818919	      3.21482392	     60.50416543	      1.05599690	     22.03946660	     -8.99863963	     -6.39239982	    -36.44372669	      0.48599113	     -9.94725631	     54.85212399	     -4.30387725	     58.36614109	    121.48870922	    101.66644129	     71.41412956	    -11.65985523	     71.47333801	    123.12745761	    105.52698346
      0.03333330	     -8.79059845	      3.53045291	     -3.39177137	      0.33429778	      0.79838576	     -0.11559042	     72.64298340	    -12.06561249	      0.41353642	     40.59083133	      0.70844365	     -0.71685041	      5.12265544	     -6.42107052	     51.66456962	     10.46311002	     -0.45798275	     62.05641214	      1.08308871	     19.01608460	     -9.65214910	     -6.42107052	    -33.22393031	     -3.09508700	     -8.35831622	     53.03153028	     -1.02676955	     56.16816269	    122.48491436	    102.11358287	     70.55988227	    -10.91170217	     68.67887472	    124.29923178	    106.08576636
      0.05000000	     -9.72970664	      4.98721793	     -4.24326154	      0.34112549	      0.80836272	     -0.10953224	     72.22153591	    -11.76646824	      1.56368865	     36.59780392	      0.63875218	     -0.84591560	      7.51415166	     -6.47566740	     51.96038189	     10.80945279	     -1.94136302	     61.30077094	      1.06990029	     18.98836125	     -7.83559028	     -6.47566740	    -31.12673067	     -4.90370235	     -7.71579789	     51.27632821	      0.70231844	     55.61054321	    121.76608664	    105.23119615	     68.76178002	    -10.50955088	     66.76968002	    123.97570430	    109.55430565
      0.06666670	     -9.31925302	      5.84630612	     -4.98602465	      0.34083378	      0.81557405	     -0.10927367	     70.51840930	    -11.49755689	      2.64879258	     33.80241942	      0.58996351	     -1.65569809	      9.01035065	     -6.55984191	     50.70697060	     11.15312565	     -2.59948104	     60.05064202	      1.04808142	     19.52143611	     -7.29138866	     -6.55984191	    -30.65262609	     -6.23806008	     -7.24672614	     51.69314557	      0.93089241	     56.10614996	    121.74841871	    104.40976361	     68.89309304	     -9.49575290	     66.01590623	    123.54126694	    108.62460407
      0.08333330	     -8.14372685	      6.30733354	     -5.76051576	      0.34564695	      0.82154417	     -0.11081499	     68.21752738	    -11.22208742	      3.65554247	     31.87493096	      0.55632249	     -2.67915581	      9.75754537	     -6.58599377	     48.32973258	     11.70002852	     -2.26283037	     58.41562073	      1.01954492	     20.40433249	     -6.76200406	     -6.58599377	    -30.57558096	     -7.12585592	     -6.64774267	     51.80686210	      0.73227576	     58.15689766	    122.54860563	    104.92031370	     68.94014374	     -8.53055971	     64.27547398	    122.78772558	    108.23000894
      0.10000000	     -6.61653825	      6.70269685	     -5.88574938	      0.33422597	      0.83641485	     -0.10872237	     65.88754249	    -11.46549537	      4.35529511	     30.63419987	      0.53466765	     -4.28216177	      9.99309970	     -6.66923803	     45.92884337	     12.51698695	     -1.75715248	     56.41051355	      0.98454919	     19.96249681	     -7.28777614	     -6.66923803	    -31.46600022	     -7.77744327	     -6.76306085	     53.52502594	      0.82500489	     57.99158115	    122.09252065	    102.82759712	     70.71812822	     -8.31619341	     63.20491609	    122.15723678	    105.09132630
      0.11666670	     -5.18042723	      6.84369742	     -6.12990252	      0.34772687	      0.85300784	     -0.10642715	     62.96503066	    -11.54114483	      4.43240306	     28.82422989	      0.50307772	     -5.47939233	     10.16846671	     -6.68262474	     42.57853687	     13.16965718	     -0.75962681	     53.74926104	      0.93810158	     19.45546438	     -7.81532850	     -6.68262474	    -32.19111773	     -8.28291513	     -6.68921539	     53.19726489	      1.04556119	     57.54425238	    121.23183441	    103.50237034	     69.87696509	     -8.58566308	     62.96533817	    122.12802801	    105.19844388
      0.13333330	     -4.37066253	      7.01260421	     -6.30077337	      0.34664899	      0.85661889	     -0.10641064	     61.03881854	    -11.56522071	      4.62763572	     27.66420371	      0.48283144	     -6.29149267	      9.77470365	     -6.72120815	     40.19335391	     13.54018492	     -0.09972501	     51.50762925	      0.89897772	     18.88710504	     -8.34056728	     -6.72120815	    -32.11579529	     -8.66090921	     -6.51607943	     53.44419290	      1.15178566	     58.57752012	    121.89090027	    104.40846749	     69.19216100	     -8.48410447	     63.54781799	    123.14123313	    105.00290402
      0.15000000	     -3.80600029	      7.08512547	     -6.49651664	      0.35115080	      0.86881856	     -0.10231722	     59.24444146	    -11.42360606	      4.82179163	     26.47797586	      0.46212786	     -6.73504936	      9.45884643	     -6.84212434	     37.58014322	     13.81841706	      0.72529317	     48.92193861	      0.85384891	     18.08897219	     -9.05961080	     -6.84212434	    -31.61355446	     -8.99543777	     -6.09560907	     53.27568516	      1.24716836	     58.32222114	    121.90794051	    105.41817947	     68.63604703	     -8.66454270	     63.23278489	    123.80235443	    104.33333637
      0.16666670	     -3.56812902	      6.79838250	     -6.99459756	      0.36038584	      0.87852588	     -0.10489138	     57.72280571	    -10.94162807	      5.01295427	     25.87022581	      0.45152062	     -6.32072956	      9.10561031	     -6.84879909	     35.08304218	     13.61162416	      1.62261723	     46.29639468	      0.80802452	     17.60137749	     -9.37371481	     -6.84879909	    -30.34458116	     -8.98937836	     -5.67642209	     51.17231015	      1.18329866	     58.17831679	    121.44055746	    105.41580249	     67.04835789	     -8.83073071	     63.15079344	    123.90989461	    104.28166502
      0.18333330	     -2.68969544	      6.46262856	     -7.45963892	      0.35805129	      0.89347354	     -0.10466358	     55.27760216	    -10.56091569	      5.16045769	     25.00935229	      0.43649554	     -6.27653199	      8.86401701	     -6.87532383	     31.40227033	     13.59771919	      2.86294736	     42.47556116	      0.74133839	     15.25067620	    -11.53978908	     -6.87532383	    -30.29740588	     -8.86247316	     -5.23615933	     50.44233666	      1.60652476	     59.05201610	    121.07275645	    105.48295052	     65.82187843	     -9.06057085	     62.66790854	    123.86434542	    104.04205467
      0.20000000	     -2.02778039	      6.15669424	     -7.53122566	      0.35814621	      0.90223096	     -0.10470540	     53.23243687	    -10.45551200	      4.77427792	     24.07362871	      0.42016408	     -6.47355171	      9.20943799	     -6.89417665	     28.03301224	     13.53212917	      3.93581837	     38.53611241	      0.67258204	     12.97567138	    -13.27318207	     -6.89417665	    -29.92342891	     -8.69411146	     -4.65982413	     49.60360568	      1.32155248	     58.46361714	    120.73563553	    105.53178695	     64.14107795	     -8.94611245	     62.62661856	    123.96842732	    104.04415669
      0.21666670	     -1.34182856	      5.43580666	     -7.93505402	      0.37316616	      0.91181438	     -0.10287332	     50.50301993	     -9.89508090	      4.36226662	     22.54236268	      0.39343845	     -6.22338367	      9.51298947	     -6.91313555	     24.09018669	     12.88130747	      5.25493844	     34.15942733	      0.59619448	     10.36190808	    -14.83804333	     -6.91313555	    -28.91414745	     -8.26944584	     -3.94175354	     47.25217520	      1.86927394	     58.83148181	    121.10236553	    105.50580782	     61.97866276	     -8.58795312	     61.85786493	    124.19278781	    104.00003033
